D:\school\WTK\thesis\model\3dpredictsim\Results\debug\Pog_s1_tmt_bCst_d05_k1000_WL30_ig24_act_TTC_IATx30Tn0P50_v2_GRF.mot
nRows=15
nColumns=19

name D:\school\WTK\thesis\model\3dpredictsim\Results\debug\Pog_s1_tmt_bCst_d05_k1000_WL30_ig24_act_TTC_IATx30Tn0P50_v2_GRF.mot
datacolumns 19
datarows 15
range 0.5607503355 0.7177604295
endheader
time 	ground_force_vx	ground_force_vy	ground_force_vz	ground_force_px	ground_force_py	ground_force_pz	1_ground_force_vx	1_ground_force_vy	1_ground_force_vz	1_ground_force_px	1_ground_force_py	1_ground_force_pz	ground_torque_x	ground_torque_y	ground_torque_z	1_ground_torque_x	1_ground_torque_y	1_ground_torque_z
        0.5607503355	       51.4444025937	      309.1072950558	        6.2801040090	        0.3355560084	        0.0000000000	        0.0279494719	      -97.9890157237	       72.7036989324	      -15.0244114376	        0.8051744742	        0.0000000000	       -0.0593894206	        0.0000000000	        0.0000000000	        0.0000000000	        0.0000000000	        0.0000000000	        0.0000000000	
        0.5719653422	       38.1314876084	      255.8924819632	       12.1634274030	        0.3400898981	        0.0000000000	        0.0252634772	     -167.9817041802	      167.9732701743	      -39.2187615457	        0.8176482174	        0.0000000000	       -0.0590214673	        0.0000000000	        0.0000000000	        0.0000000000	        0.0000000000	        0.0000000000	        0.0000000000	
        0.5831803489	       31.4788022033	      215.1464153202	       13.6353682825	        0.3417889477	        0.0000000000	        0.0240154155	      -73.7089466318	      414.6993751962	       -3.4863878966	        0.8349022215	        0.0000000000	       -0.0604641219	        0.0000000000	        0.0000000000	        0.0000000000	        0.0000000000	        0.0000000000	        0.0000000000	
        0.5943953557	       24.5500986254	      167.7365846959	       10.6068734139	        0.3416881273	        0.0000000000	        0.0238777755	      -70.4459140613	      693.4329644824	       19.4771191021	        0.8433099519	        0.0000000000	       -0.0617730563	        0.0000000000	        0.0000000000	        0.0000000000	        0.0000000000	        0.0000000000	        0.0000000000	
        0.6056103624	        9.9482559870	      110.6519437335	        9.9790094342	        0.3410451959	        0.0000000000	        0.0240089789	      -91.7033428651	      863.1268077675	       27.3839513193	        0.8507249489	        0.0000000000	       -0.0623016688	        0.0000000000	        0.0000000000	        0.0000000000	        0.0000000000	        0.0000000000	        0.0000000000	
        0.6168253691	       -4.5761039824	       38.5738838609	        4.9709816859	        0.3393365853	        0.0000000000	        0.0241112564	     -123.3235557691	      957.6592797182	       28.8696719000	        0.8604333004	        0.0000000000	       -0.0617293925	        0.0000000000	        0.0000000000	        0.0000000000	        0.0000000000	        0.0000000000	        0.0000000000	
        0.6280403758	        1.1924301412	       -1.1796194869	        0.0240039272	        0.0000000000	        0.0000000000	        0.0000000000	     -120.0857623779	      968.0210376112	       28.1742684258	        0.8701852516	        0.0000000000	       -0.0608149547	        0.0000000000	        0.0000000000	        0.0000000000	        0.0000000000	        0.0000000000	        0.0000000000	
        0.6392553825	        0.9842859185	       -0.8081671343	        0.0736883302	        0.0000000000	        0.0000000000	        0.0000000000	     -106.8469840352	      904.6460595001	       25.7935955604	        0.8773735513	        0.0000000000	       -0.0599116717	        0.0000000000	        0.0000000000	        0.0000000000	        0.0000000000	        0.0000000000	        0.0000000000	
        0.6504703892	        0.6456815252	       -0.4783503409	        0.0430624871	        0.0000000000	        0.0000000000	        0.0000000000	      -93.4839358031	      834.3324367362	       23.5748304278	        0.8834999656	        0.0000000000	       -0.0592132391	        0.0000000000	        0.0000000000	        0.0000000000	        0.0000000000	        0.0000000000	        0.0000000000	
        0.6616853959	        0.3827370517	       -0.2650901551	        0.0218608645	        0.0000000000	        0.0000000000	        0.0000000000	      -83.1068729099	      784.6743360819	       22.8724419701	        0.8893749536	        0.0000000000	       -0.0585988960	        0.0000000000	        0.0000000000	        0.0000000000	        0.0000000000	        0.0000000000	        0.0000000000	
        0.6729004026	        0.0981362497	       -0.0632328297	        0.0052836559	        0.0000000000	        0.0000000000	        0.0000000000	      -73.6870823789	      751.0222525930	       22.3085075185	        0.8951382892	        0.0000000000	       -0.0580221074	        0.0000000000	        0.0000000000	        0.0000000000	        0.0000000000	        0.0000000000	        0.0000000000	
        0.6841154093	       -0.0579023597	        0.0354023445	       -0.0027758005	        0.0000000000	        0.0000000000	        0.0000000000	      -63.6960274821	      725.0203339239	       21.9697898385	        0.9015153099	        0.0000000000	       -0.0574074273	        0.0000000000	        0.0000000000	        0.0000000000	        0.0000000000	        0.0000000000	        0.0000000000	
        0.6953304161	       -0.2007832489	        0.1186347325	       -0.0082282494	        0.0000000000	        0.0000000000	        0.0000000000	      -55.3874369843	      705.0118834654	       22.4524254884	        0.9091459801	        0.0000000000	       -0.0566448092	        0.0000000000	        0.0000000000	        0.0000000000	        0.0000000000	        0.0000000000	        0.0000000000	
        0.7065454228	       -0.1367135116	        0.0770636330	       -0.0063900189	        0.0000000000	        0.0000000000	        0.0000000000	      -49.3342520765	      691.3757249626	       24.1214143462	        0.9178292193	        0.0000000000	       -0.0556972910	        0.0000000000	        0.0000000000	        0.0000000000	        0.0000000000	        0.0000000000	        0.0000000000	
        0.7177604295	       -0.0776843300	        0.0414702092	       -0.0043558211	        0.0000000000	        0.0000000000	        0.0000000000	      -44.7955392611	      680.1114259444	       24.4399801123	        0.9269448851	        0.0000000000	       -0.0546305218	        0.0000000000	        0.0000000000	        0.0000000000	        0.0000000000	        0.0000000000	        0.0000000000	
